<mxfile host="app.diagrams.net" modified="2021-01-26T07:51:31.486Z" agent="5.0 (Windows NT 10.0; Win64; x64) AppleWebKit/537.36 (KHTML, like Gecko) Chrome/87.0.4280.141 Safari/537.36" etag="NmC7Vqr3RyXxJaaaOp7V" version="14.0.1" type="github">
  <diagram id="C5RBs43oDa-KdzZeNtuy" name="Page-1">
    <mxGraphModel dx="1865" dy="548" grid="1" gridSize="10" guides="1" tooltips="1" connect="1" arrows="1" fold="1" page="1" pageScale="1" pageWidth="827" pageHeight="1169" math="0" shadow="0">
      <root>
        <mxCell id="WIyWlLk6GJQsqaUBKTNV-0" />
        <mxCell id="WIyWlLk6GJQsqaUBKTNV-1" parent="WIyWlLk6GJQsqaUBKTNV-0" />
        <mxCell id="WIyWlLk6GJQsqaUBKTNV-2" value="" style="rounded=0;html=1;jettySize=auto;orthogonalLoop=1;fontSize=11;endArrow=block;endFill=0;endSize=8;strokeWidth=1;shadow=0;labelBackgroundColor=none;edgeStyle=orthogonalEdgeStyle;" parent="WIyWlLk6GJQsqaUBKTNV-1" source="WIyWlLk6GJQsqaUBKTNV-3" target="WIyWlLk6GJQsqaUBKTNV-6" edge="1">
          <mxGeometry relative="1" as="geometry" />
        </mxCell>
        <mxCell id="WIyWlLk6GJQsqaUBKTNV-3" value="GPS采集时间" style="rounded=1;whiteSpace=wrap;html=1;fontSize=12;glass=0;strokeWidth=1;shadow=0;" parent="WIyWlLk6GJQsqaUBKTNV-1" vertex="1">
          <mxGeometry x="226" y="80" width="120" height="40" as="geometry" />
        </mxCell>
        <mxCell id="ZgS7b91Rjw5_SPYIkpHO-20" value="" style="edgeStyle=orthogonalEdgeStyle;rounded=0;orthogonalLoop=1;jettySize=auto;html=1;" edge="1" parent="WIyWlLk6GJQsqaUBKTNV-1" source="WIyWlLk6GJQsqaUBKTNV-6" target="ZgS7b91Rjw5_SPYIkpHO-19">
          <mxGeometry relative="1" as="geometry" />
        </mxCell>
        <mxCell id="ZgS7b91Rjw5_SPYIkpHO-23" value="否" style="edgeStyle=orthogonalEdgeStyle;rounded=0;orthogonalLoop=1;jettySize=auto;html=1;entryX=0;entryY=0.5;entryDx=0;entryDy=0;" edge="1" parent="WIyWlLk6GJQsqaUBKTNV-1" source="WIyWlLk6GJQsqaUBKTNV-6" target="ZgS7b91Rjw5_SPYIkpHO-22">
          <mxGeometry relative="1" as="geometry" />
        </mxCell>
        <mxCell id="WIyWlLk6GJQsqaUBKTNV-6" value="陀螺仪&lt;br&gt;加速度连续10次&lt;br&gt;变化" style="rhombus;whiteSpace=wrap;html=1;shadow=0;fontFamily=Helvetica;fontSize=12;align=center;strokeWidth=1;spacing=6;spacingTop=-4;" parent="WIyWlLk6GJQsqaUBKTNV-1" vertex="1">
          <mxGeometry x="236" y="170" width="100" height="70" as="geometry" />
        </mxCell>
        <mxCell id="WIyWlLk6GJQsqaUBKTNV-7" value="调整到默认30分钟" style="rounded=1;whiteSpace=wrap;html=1;fontSize=12;glass=0;strokeWidth=1;shadow=0;" parent="WIyWlLk6GJQsqaUBKTNV-1" vertex="1">
          <mxGeometry x="528" y="280" width="120" height="40" as="geometry" />
        </mxCell>
        <mxCell id="ZgS7b91Rjw5_SPYIkpHO-5" value="3-6km/h" style="edgeStyle=orthogonalEdgeStyle;rounded=0;orthogonalLoop=1;jettySize=auto;html=1;entryX=0.5;entryY=0;entryDx=0;entryDy=0;" edge="1" parent="WIyWlLk6GJQsqaUBKTNV-1" source="ZgS7b91Rjw5_SPYIkpHO-0" target="ZgS7b91Rjw5_SPYIkpHO-7">
          <mxGeometry relative="1" as="geometry">
            <mxPoint x="286" y="480" as="targetPoint" />
          </mxGeometry>
        </mxCell>
        <mxCell id="ZgS7b91Rjw5_SPYIkpHO-8" style="edgeStyle=orthogonalEdgeStyle;rounded=0;orthogonalLoop=1;jettySize=auto;html=1;" edge="1" parent="WIyWlLk6GJQsqaUBKTNV-1" source="ZgS7b91Rjw5_SPYIkpHO-0">
          <mxGeometry relative="1" as="geometry">
            <mxPoint x="146" y="480" as="targetPoint" />
          </mxGeometry>
        </mxCell>
        <mxCell id="ZgS7b91Rjw5_SPYIkpHO-14" value="小于3km/h" style="edgeLabel;html=1;align=center;verticalAlign=middle;resizable=0;points=[];" vertex="1" connectable="0" parent="ZgS7b91Rjw5_SPYIkpHO-8">
          <mxGeometry x="0.3412" y="-1" relative="1" as="geometry">
            <mxPoint as="offset" />
          </mxGeometry>
        </mxCell>
        <mxCell id="ZgS7b91Rjw5_SPYIkpHO-10" value="30--60km/h" style="edgeStyle=orthogonalEdgeStyle;rounded=0;orthogonalLoop=1;jettySize=auto;html=1;entryX=0.5;entryY=0;entryDx=0;entryDy=0;" edge="1" parent="WIyWlLk6GJQsqaUBKTNV-1" source="ZgS7b91Rjw5_SPYIkpHO-0" target="ZgS7b91Rjw5_SPYIkpHO-13">
          <mxGeometry relative="1" as="geometry">
            <mxPoint x="546" y="480" as="targetPoint" />
          </mxGeometry>
        </mxCell>
        <mxCell id="ZgS7b91Rjw5_SPYIkpHO-15" value="6-30km/h" style="edgeStyle=orthogonalEdgeStyle;rounded=0;orthogonalLoop=1;jettySize=auto;html=1;entryX=0.5;entryY=0;entryDx=0;entryDy=0;" edge="1" parent="WIyWlLk6GJQsqaUBKTNV-1" source="ZgS7b91Rjw5_SPYIkpHO-0" target="ZgS7b91Rjw5_SPYIkpHO-12">
          <mxGeometry relative="1" as="geometry" />
        </mxCell>
        <mxCell id="ZgS7b91Rjw5_SPYIkpHO-17" value="大于60km/h" style="edgeStyle=orthogonalEdgeStyle;rounded=0;orthogonalLoop=1;jettySize=auto;html=1;" edge="1" parent="WIyWlLk6GJQsqaUBKTNV-1" source="ZgS7b91Rjw5_SPYIkpHO-0" target="ZgS7b91Rjw5_SPYIkpHO-18">
          <mxGeometry relative="1" as="geometry">
            <mxPoint x="686" y="480" as="targetPoint" />
          </mxGeometry>
        </mxCell>
        <mxCell id="ZgS7b91Rjw5_SPYIkpHO-0" value="&lt;span&gt;根据速度动态调整&lt;/span&gt;" style="rounded=1;whiteSpace=wrap;html=1;" vertex="1" parent="WIyWlLk6GJQsqaUBKTNV-1">
          <mxGeometry x="226" y="360" width="120" height="60" as="geometry" />
        </mxCell>
        <mxCell id="ZgS7b91Rjw5_SPYIkpHO-30" style="edgeStyle=orthogonalEdgeStyle;rounded=0;orthogonalLoop=1;jettySize=auto;html=1;entryX=0.5;entryY=0;entryDx=0;entryDy=0;" edge="1" parent="WIyWlLk6GJQsqaUBKTNV-1" source="ZgS7b91Rjw5_SPYIkpHO-7" target="ZgS7b91Rjw5_SPYIkpHO-25">
          <mxGeometry relative="1" as="geometry">
            <Array as="points">
              <mxPoint x="230" y="580" />
              <mxPoint x="296" y="580" />
            </Array>
          </mxGeometry>
        </mxCell>
        <mxCell id="ZgS7b91Rjw5_SPYIkpHO-7" value="步行，1分钟" style="rounded=1;whiteSpace=wrap;html=1;" vertex="1" parent="WIyWlLk6GJQsqaUBKTNV-1">
          <mxGeometry x="170" y="480" width="120" height="60" as="geometry" />
        </mxCell>
        <mxCell id="ZgS7b91Rjw5_SPYIkpHO-29" style="edgeStyle=orthogonalEdgeStyle;rounded=0;orthogonalLoop=1;jettySize=auto;html=1;" edge="1" parent="WIyWlLk6GJQsqaUBKTNV-1" source="ZgS7b91Rjw5_SPYIkpHO-11" target="ZgS7b91Rjw5_SPYIkpHO-25">
          <mxGeometry relative="1" as="geometry">
            <Array as="points">
              <mxPoint x="100" y="580" />
              <mxPoint x="296" y="580" />
            </Array>
          </mxGeometry>
        </mxCell>
        <mxCell id="ZgS7b91Rjw5_SPYIkpHO-11" value="静止，5分钟" style="rounded=1;whiteSpace=wrap;html=1;" vertex="1" parent="WIyWlLk6GJQsqaUBKTNV-1">
          <mxGeometry x="40" y="480" width="120" height="60" as="geometry" />
        </mxCell>
        <mxCell id="ZgS7b91Rjw5_SPYIkpHO-31" style="edgeStyle=orthogonalEdgeStyle;rounded=0;orthogonalLoop=1;jettySize=auto;html=1;entryX=0.5;entryY=0;entryDx=0;entryDy=0;" edge="1" parent="WIyWlLk6GJQsqaUBKTNV-1" source="ZgS7b91Rjw5_SPYIkpHO-12" target="ZgS7b91Rjw5_SPYIkpHO-25">
          <mxGeometry relative="1" as="geometry">
            <Array as="points">
              <mxPoint x="370" y="580" />
              <mxPoint x="296" y="580" />
            </Array>
          </mxGeometry>
        </mxCell>
        <mxCell id="ZgS7b91Rjw5_SPYIkpHO-12" value="骑行，30秒" style="rounded=1;whiteSpace=wrap;html=1;" vertex="1" parent="WIyWlLk6GJQsqaUBKTNV-1">
          <mxGeometry x="310" y="480" width="120" height="60" as="geometry" />
        </mxCell>
        <mxCell id="ZgS7b91Rjw5_SPYIkpHO-32" style="edgeStyle=orthogonalEdgeStyle;rounded=0;orthogonalLoop=1;jettySize=auto;html=1;" edge="1" parent="WIyWlLk6GJQsqaUBKTNV-1" source="ZgS7b91Rjw5_SPYIkpHO-13" target="ZgS7b91Rjw5_SPYIkpHO-25">
          <mxGeometry relative="1" as="geometry">
            <Array as="points">
              <mxPoint x="510" y="580" />
              <mxPoint x="296" y="580" />
            </Array>
          </mxGeometry>
        </mxCell>
        <mxCell id="ZgS7b91Rjw5_SPYIkpHO-13" value="开车低速，10秒" style="rounded=1;whiteSpace=wrap;html=1;" vertex="1" parent="WIyWlLk6GJQsqaUBKTNV-1">
          <mxGeometry x="450" y="480" width="120" height="60" as="geometry" />
        </mxCell>
        <mxCell id="ZgS7b91Rjw5_SPYIkpHO-33" style="edgeStyle=orthogonalEdgeStyle;rounded=0;orthogonalLoop=1;jettySize=auto;html=1;" edge="1" parent="WIyWlLk6GJQsqaUBKTNV-1" source="ZgS7b91Rjw5_SPYIkpHO-18" target="ZgS7b91Rjw5_SPYIkpHO-25">
          <mxGeometry relative="1" as="geometry">
            <Array as="points">
              <mxPoint x="660" y="580" />
              <mxPoint x="296" y="580" />
            </Array>
          </mxGeometry>
        </mxCell>
        <mxCell id="ZgS7b91Rjw5_SPYIkpHO-18" value="开车高速，5秒" style="rounded=1;whiteSpace=wrap;html=1;" vertex="1" parent="WIyWlLk6GJQsqaUBKTNV-1">
          <mxGeometry x="600" y="480" width="120" height="60" as="geometry" />
        </mxCell>
        <mxCell id="ZgS7b91Rjw5_SPYIkpHO-21" value="" style="edgeStyle=orthogonalEdgeStyle;rounded=0;orthogonalLoop=1;jettySize=auto;html=1;" edge="1" parent="WIyWlLk6GJQsqaUBKTNV-1" source="ZgS7b91Rjw5_SPYIkpHO-19" target="ZgS7b91Rjw5_SPYIkpHO-0">
          <mxGeometry relative="1" as="geometry" />
        </mxCell>
        <mxCell id="ZgS7b91Rjw5_SPYIkpHO-19" value="预设调整到10秒，根据连续采样10次" style="rounded=1;whiteSpace=wrap;html=1;" vertex="1" parent="WIyWlLk6GJQsqaUBKTNV-1">
          <mxGeometry x="226" y="270" width="120" height="60" as="geometry" />
        </mxCell>
        <mxCell id="ZgS7b91Rjw5_SPYIkpHO-24" value="否" style="edgeStyle=orthogonalEdgeStyle;rounded=0;orthogonalLoop=1;jettySize=auto;html=1;" edge="1" parent="WIyWlLk6GJQsqaUBKTNV-1" source="ZgS7b91Rjw5_SPYIkpHO-22" target="WIyWlLk6GJQsqaUBKTNV-7">
          <mxGeometry relative="1" as="geometry" />
        </mxCell>
        <mxCell id="ZgS7b91Rjw5_SPYIkpHO-22" value="当前间隔&lt;br&gt;是否30分钟" style="rhombus;whiteSpace=wrap;html=1;" vertex="1" parent="WIyWlLk6GJQsqaUBKTNV-1">
          <mxGeometry x="540" y="165" width="96" height="80" as="geometry" />
        </mxCell>
        <mxCell id="ZgS7b91Rjw5_SPYIkpHO-34" style="edgeStyle=orthogonalEdgeStyle;rounded=0;orthogonalLoop=1;jettySize=auto;html=1;entryX=0;entryY=0.25;entryDx=0;entryDy=0;" edge="1" parent="WIyWlLk6GJQsqaUBKTNV-1" source="ZgS7b91Rjw5_SPYIkpHO-25" target="ZgS7b91Rjw5_SPYIkpHO-0">
          <mxGeometry relative="1" as="geometry">
            <Array as="points">
              <mxPoint x="20" y="660" />
              <mxPoint x="20" y="375" />
            </Array>
          </mxGeometry>
        </mxCell>
        <mxCell id="ZgS7b91Rjw5_SPYIkpHO-35" value="动态增加" style="edgeLabel;html=1;align=center;verticalAlign=middle;resizable=0;points=[];" vertex="1" connectable="0" parent="ZgS7b91Rjw5_SPYIkpHO-34">
          <mxGeometry x="-0.0625" y="2" relative="1" as="geometry">
            <mxPoint as="offset" />
          </mxGeometry>
        </mxCell>
        <mxCell id="ZgS7b91Rjw5_SPYIkpHO-25" value="得到相应的坐标位置和时间" style="rounded=1;whiteSpace=wrap;html=1;" vertex="1" parent="WIyWlLk6GJQsqaUBKTNV-1">
          <mxGeometry x="236" y="630" width="120" height="60" as="geometry" />
        </mxCell>
      </root>
    </mxGraphModel>
  </diagram>
</mxfile>
